{"title":"Everest.2015.720p.HDRip.KORSUB.XviD.MP3-RARBG","uid":12622970,"size":3421205986,"categoryP":"video","categoryS":"movies","magnet":"?xt=urn:btih:4dd92ad0bb6de40bc9e513f3f3e671ca125fcdb7&amp;dn=Everest.2015.720p.HDRip.KORSUB.XviD.MP3-RARBG&amp;tr=udp%3A%2F%2Ftracker.leechers-paradise.org%3A6969&amp;tr=udp%3A%2F%2Fzer0day.ch%3A1337&amp;tr=udp%3A%2F%2Fopen.demonii.com%3A1337&amp;tr=udp%3A%2F%2Ftracker.coppersurfer.tk%3A6969&amp;tr=udp%3A%2F%2Fexodus.desync.com%3A6969","seeders":0,"leechers":1,"uploader":"dru666","files":4,"time":1445625913,"description":"Video\r\nID                                       : 0\r\nFormat                                   : MPEG-4 Visual\r\nFormat profile                           :   \r\nFormat settings, BVOP                    : No\r\nFormat settings, QPel                    : No\r\nFormat settings, GMC                     : No warppoints\r\nFormat settings, Matrix                  : Default (H.263)\r\nCodec ID                                 : XVID\r\nCodec ID/Hint                            : XviD\r\nDuration                                 : 2h 0mn\r\nBit rate                                 : 3 565 Kbps\r\nWidth                                    : 1 280 pixels\r\nHeight                                   : 536 pixels\r\nDisplay aspect ratio                     : 2.40:1\r\nFrame rate                               : 29.970 fps\r\nColor space                              : YUV\r\nChroma subsampling                       : 4:2:0\r\nBit depth                                : 8 bits\r\nScan type                                : Progressive\r\nCompression mode                         : Lossy\r\nBits/(Pixel*Frame)                       : 0.173\r\nStream size                              : 3.01 GiB (95%)\r\nWriting library                          : Lavc56.58.100\r\n\r\nAudio\r\nID                                       : 1\r\nFormat                                   : MPEG Audio\r\nFormat version                           : Version 1\r\nFormat profile                           : Layer 3\r\nMode                                     : Joint stereo\r\nMode extension                           : MS Stereo\r\nCodec ID                                 : 55\r\nCodec ID/Hint                            : MP3\r\nDuration                                 : 2h 0mn\r\nBit rate mode                            : Constant\r\nBit rate                                 : 192 Kbps\r\nChannel(s)                               : 2 channels\r\nSampling rate                            : 48.0 KHz\r\nCompression mode                         : Lossy\r\nStream size                              : 166 MiB (5%)\r\nAlignment                                : Aligned on interleaves\r\nInterleave, duration                     : 24 ms (0.72 video frame)\r\nInterleave, preload duration             : 504 ms\r\nWriting library                          : LAME3.99.5","torrent":{"xt":"urn:btih:4dd92ad0bb6de40bc9e513f3f3e671ca125fcdb7","amp;dn":"Everest.2015.720p.HDRip.KORSUB.XviD.MP3-RARBG","amp;tr":["udp%3A%2F%2Ftracker.leechers-paradise.org%3A6969","udp%3A%2F%2Fzer0day.ch%3A1337","udp%3A%2F%2Fopen.demonii.com%3A1337","udp%3A%2F%2Ftracker.coppersurfer.tk%3A6969","udp%3A%2F%2Fexodus.desync.com%3A6969"],"infoHash":"4dd92ad0bb6de40bc9e513f3f3e671ca125fcdb7","infoHashBuffer":{"type":"Buffer","data":[77,217,42,208,187,109,228,11,201,229,19,243,243,230,113,202,18,95,205,183]},"announce":[],"urlList":[]}}